[img]http://img576.imageshack.us/img576/903/waitingforforeverposter.jpg[/img]




[img]http://img718.imageshack.us/img718/4065/mxmgc.jpg[/img]

[quote]
Format                           : MPEG-4
Format profile                   : Base Media
Codec ID                         : isom
File size                        : 1.56 GiB
Duration                         : 1h 34mn
Overall bit rate                 : 2 370 Kbps
Encoded date                     : UTC 2011-04-29 13:28:23
Tagged date                      : UTC 2011-04-29 13:28:23

Video
ID                               : 1
Format                           : AVC
Format/Info                      : Advanced Video Codec
Format profile                   : High@L4.1
Format settings, CABAC           : Yes
Format settings, ReFrames        : 4 frames
Codec ID                         : avc1
Codec ID/Info                    : Advanced Video Coding
Duration                         : 1h 34mn
Bit rate mode                    : Variable
Bit rate                         : 2 111 Kbps
Maximum bit rate                 : 9 140 Kbps
Width                            : 1 280 pixels
Height                           : 696 pixels
Display aspect ratio             : 16:9
Frame rate mode                  : Constant
Frame rate                       : 23.976 fps
Color space                      : YUV
Chroma subsampling               : 4:2:0
Bit depth                        : 8 bits
Scan type                        : Progressive
Bits/(Pixel*Frame)               : 0.099
Stream size                      : 1.39 GiB (89%)
Writing library                  : x264 core 115 r1937 aa21558
Encoding settings                : cabac=1 / ref=3 / deblock=1:0:0 / analyse=0x3:0x113 / me=umh / subme=7 / psy=1 / psy_rd=1.00:0.00 / mixed_ref=1 / me_range=12 / chroma_me=1 / trellis=2 / 8x8dct=1 / cqm=0 / deadzone=21,11 / fast_pskip=1 / chroma_qp_offset=-2 / threads=3 / sliced_threads=0 / nr=0 / decimate=1 / interlaced=0 / bluray_compat=0 / constrained_intra=0 / bframes=3 / b_pyramid=2 / b_adapt=2 / b_bias=0 / direct=3 / weightb=1 / open_gop=0 / weightp=2 / keyint=250 / keyint_min=23 / scenecut=40 / intra_refresh=0 / rc_lookahead=60 / rc=2pass / mbtree=1 / bitrate=2111 / ratetol=1.0 / qcomp=0.50 / qpmin=0 / qpmax=69 / qpstep=4 / cplxblur=20.0 / qblur=0.5 / vbv_maxrate=24000 / vbv_bufsize=24000 / nal_hrd=none / ip_ratio=1.10 / aq=1:1.00
Encoded date                     : UTC 2011-04-29 13:28:23
Tagged date                      : UTC 2011-04-29 13:29:10

Audio
ID                               : 2
Format                           : AAC
Format/Info                      : Advanced Audio Codec
Format profile                   : LC
Codec ID                         : 40
Duration                         : 1h 34mn
Bit rate mode                    : Variable
Bit rate                         : 256 Kbps
Maximum bit rate                 : 270 Kbps
Channel(s)                       : 6 channels
Channel positions                : Front: L C R, Side: L R, LFE
Sampling rate                    : 48.0 KHz
Compression mode                 : Lossy
Stream size                      : 172 MiB (11%)
Encoded date                     : UTC 2011-04-29 13:28:53
Tagged date                      : UTC 2011-04-29 13:29:10
[/quote]


Screens :
[img]http://img713.imageshack.us/img713/5695/screenshot2011042919h37.png[/img]

[img]http://img807.imageshack.us/img807/7227/screenshot2011042919h46.png[/img]

[img]http://img845.imageshack.us/img845/3841/screenshot2011042919h50.png[/img]

[img]http://img571.imageshack.us/img571/1365/screenshot2011042919h53.png[/img]



[quote]
# Latest codecs used to deliver Top Quality Releases
# Seeded at high speeds to grant super Download speeds
[/quote]

[code]
Seedboxes provided by   http://www.chociz.com/
A seedbox is a private dedicated server used for the uploading and downloading of digital files.
Speed - You can sit back, relax and watch in amazement at how fast the torrents finish. 
Secure and Safe - With a seedbox, you don’t even need to use a BitTorrent client on your home computer!
Use Private Trackers -  You can register @ Private Trackers and seed like Hell!

Get a Cheap Seedbox choosing for your taste - [url]http://www.chociz.com/whmcs/cart.php[/url]
[/code]

